contact_force_test_states
version=1
nRows=10
nColumns=61
inDegrees=yes

# SIMM Motion File Header:
name contact_force_test_states
datacolumns 61
datarows 10
otherdata 1
range 0.06036433 0.06761101
endheader
time	/jointset/ground_pelvis/pelvis_list/value	/jointset/ground_pelvis/pelvis_list/speed	/jointset/ground_pelvis/pelvis_rotation/value	/jointset/ground_pelvis/pelvis_rotation/speed	/jointset/ground_pelvis/pelvis_tilt/value	/jointset/ground_pelvis/pelvis_tilt/speed	/jointset/ground_pelvis/pelvis_tx/value	/jointset/ground_pelvis/pelvis_tx/speed	/jointset/ground_pelvis/pelvis_ty/value	/jointset/ground_pelvis/pelvis_ty/speed	/jointset/ground_pelvis/pelvis_tz/value	/jointset/ground_pelvis/pelvis_tz/speed	/jointset/hip_r/hip_adduction_r/value	/jointset/hip_r/hip_adduction_r/speed	/jointset/hip_r/hip_rotation_r/value	/jointset/hip_r/hip_rotation_r/speed	/jointset/hip_r/hip_flexion_r/value	/jointset/hip_r/hip_flexion_r/speed	/jointset/hip_l/hip_adduction_l/value	/jointset/hip_l/hip_adduction_l/speed	/jointset/hip_l/hip_rotation_l/value	/jointset/hip_l/hip_rotation_l/speed	/jointset/hip_l/hip_flexion_l/value	/jointset/hip_l/hip_flexion_l/speed	/jointset/knee_r/knee_flexion_r/value	/jointset/knee_r/knee_flexion_r/speed	/jointset/knee_l/knee_flexion_l/value	/jointset/knee_l/knee_flexion_l/speed	/jointset/ankle_r/ankle_dorsiflexion_r/value	/jointset/ankle_r/ankle_dorsiflexion_r/speed	/jointset/ankle_l/ankle_dorsiflexion_l/value	/jointset/ankle_l/ankle_dorsiflexion_l/speed	/forceset/hamstrings_r/activation	/forceset/hamstrings_r/fiber_length	/forceset/glut_max_r/activation	/forceset/glut_max_r/fiber_length	/forceset/ilipsoas_r/activation	/forceset/ilipsoas_r/fiber_length	/forceset/vasti_r/activation	/forceset/vasti_r/fiber_length	/forceset/gastroc_r/activation	/forceset/gastroc_r/fiber_length	/forceset/soleus_r/activation	/forceset/soleus_r/fiber_length	/forceset/tibia_r/activation	/forceset/tibia_r/fiber_length	/forceset/hamstrings_l/activation	/forceset/hamstrings_l/fiber_length	/forceset/glut_max_l/activation	/forceset/glut_max_l/fiber_length	/forceset/ilipsoas_l/activation	/forceset/ilipsoas_l/fiber_length	/forceset/vasti_l/activation	/forceset/vasti_l/fiber_length	/forceset/gastroc_l/activation	/forceset/gastroc_l/fiber_length	/forceset/soleus_l/activation	/forceset/soleus_l/fiber_length	/forceset/tibia_l/activation	/forceset/tibia_l/fiber_length
      0.06036433	      0.00000000	     -0.00000000	     -0.00000000	     -0.00000000	      1.24261392	     28.61191445	      0.00498079	      0.11065795	      0.98092394	      0.54481047	      0.00000000	      0.00000000	      0.00030426	      0.01685810	      0.02658755	      0.65022788	     -1.30155302	    -26.45058351	     -0.00030426	     -0.01685810	     -0.02658755	     -0.65022788	     -1.30155302	    -26.45058351	     -0.99462032	    -26.20019604	     -0.99462032	    -26.20019604	      3.80422142	     41.34911714	      3.80422142	     41.34911714	      0.02178021	      0.10513222	      0.02178021	      0.09096691	      0.02178021	      0.10957806	      0.02178021	      0.08991482	      0.02178021	      0.06557148	      0.02178021	      0.05371843	      0.02178021	      0.09018209	      0.02178021	      0.10513222	      0.02178021	      0.09096691	      0.02178021	      0.10957806	      0.02178021	      0.08991482	      0.02178021	      0.06557148	      0.02178021	      0.05371843	      0.02178021	      0.09018209
      0.06116951	      0.00000000	     -0.00000000	     -0.00000000	     -0.00000000	      1.26569725	     28.72427809	      0.00506997	      0.11084391	      0.98136182	      0.54282685	      0.00000000	      0.00000000	      0.00031790	      0.01704238	      0.02711056	      0.64896651	     -1.32282628	    -26.38929892	     -0.00031790	     -0.01704238	     -0.02711056	     -0.64896651	     -1.32282628	    -26.38929892	     -1.01584992	    -26.53186044	     -1.01584992	    -26.53186044	      3.83727270	     40.74545326	      3.83727270	     40.74545326	      0.02154799	      0.10510831	      0.02154799	      0.09089472	      0.02154799	      0.10959601	      0.02154799	      0.08981718	      0.02154799	      0.06556838	      0.02154799	      0.05362959	      0.02154799	      0.09008601	      0.02154799	      0.10510831	      0.02154799	      0.09089472	      0.02154799	      0.10959601	      0.02154799	      0.08981718	      0.02154799	      0.06556838	      0.02154799	      0.05362959	      0.02154799	      0.09008601
      0.06197470	     -0.00000000	     -0.00000000	     -0.00000000	     -0.00000000	      1.28887022	     28.83460968	      0.00515929	      0.11101814	      0.98179807	      0.54078593	      0.00000000	      0.00000000	      0.00033172	      0.01727110	      0.02763279	      0.64828643	     -1.34404860	    -26.32405267	     -0.00033172	     -0.01727110	     -0.02763279	     -0.64828643	     -1.34404860	    -26.32405267	     -1.03734677	    -26.86392662	     -1.03734677	    -26.86392662	      3.86983025	     40.12211322	      3.86983025	     40.12211322	      0.02131840	      0.10508422	      0.02131840	      0.09082341	      0.02131840	      0.10961389	      0.02131840	      0.08972033	      0.02131840	      0.06556729	      0.02131840	      0.05354220	      0.02131840	      0.08999070	      0.02131840	      0.10508422	      0.02131840	      0.09082341	      0.02131840	      0.10961389	      0.02131840	      0.08972033	      0.02131840	      0.06556729	      0.02131840	      0.05354220	      0.02131840	      0.08999070
      0.06277989	     -0.00000000	     -0.00000000	     -0.00000000	     -0.00000000	      1.31213123	     28.94293595	      0.00524874	      0.11118104	      0.98223267	      0.53868671	      0.00000000	      0.00000000	      0.00034573	      0.01754225	      0.02815469	      0.64816234	     -1.36521683	    -26.25499075	     -0.00034573	     -0.01754225	     -0.02815469	     -0.64816234	     -1.36521683	    -26.25499075	     -1.05911097	    -27.19587651	     -1.05911097	    -27.19587651	      3.90187699	     39.47604877	      3.90187699	     39.47604877	      0.02109140	      0.10505995	      0.02109140	      0.09075296	      0.02109140	      0.10963169	      0.02109140	      0.08962429	      0.02109140	      0.06556803	      0.02109140	      0.05345622	      0.02109140	      0.08989617	      0.02109140	      0.10505995	      0.02109140	      0.09075296	      0.02109140	      0.10963169	      0.02109140	      0.08962429	      0.02109140	      0.06556803	      0.02109140	      0.05345622	      0.02109140	      0.08989617
      0.06358508	     -0.00000000	      0.00000000	     -0.00000000	     -0.00000000	      1.33547866	     29.04928060	      0.00533833	      0.11133300	      0.98266555	      0.53652822	      0.00000000	      0.00000000	      0.00035998	      0.01785412	      0.02867672	      0.64856930	     -1.38632797	    -26.18225451	     -0.00035998	     -0.01785412	     -0.02867672	     -0.64856930	     -1.38632797	    -26.18225451	     -1.08114224	    -27.52719042	     -1.08114224	    -27.52719042	      3.93339337	     38.80412427	      3.93339337	     38.80412427	      0.02086696	      0.10503551	      0.02086696	      0.09068336	      0.02086696	      0.10964941	      0.02086696	      0.08952903	      0.02086696	      0.06557043	      0.02086696	      0.05337163	      0.02086696	      0.08980241	      0.02086696	      0.10503551	      0.02086696	      0.09068336	      0.02086696	      0.10964941	      0.02086696	      0.08952903	      0.02086696	      0.06557043	      0.02086696	      0.05337163	      0.02086696	      0.08980241
      0.06439026	     -0.00000000	     -0.00000000	     -0.00000000	     -0.00000000	      1.35891093	     29.15366457	      0.00542803	      0.11147434	      0.98309666	      0.53430948	      0.00000000	      0.00000000	      0.00037449	      0.01820524	      0.02919927	      0.64948341	     -1.40737911	    -26.10598165	     -0.00037449	     -0.01820524	     -0.02919927	     -0.64948341	     -1.40737911	    -26.10598165	     -1.10343984	    -27.85734386	     -1.10343984	    -27.85734386	      3.96435728	     38.10317557	      3.96435728	     38.10317557	      0.02064505	      0.10501089	      0.02064505	      0.09061459	      0.02064505	      0.10966706	      0.02064505	      0.08943455	      0.02064505	      0.06557435	      0.02064505	      0.05328842	      0.02064505	      0.08970941	      0.02064505	      0.10501089	      0.02064505	      0.09061459	      0.02064505	      0.10966706	      0.02064505	      0.08943455	      0.02064505	      0.06557435	      0.02064505	      0.05328842	      0.02064505	      0.08970941
      0.06519545	     -0.00000000	     -0.00000000	     -0.00000000	     -0.00000000	      1.38242646	     29.25610619	      0.00551784	      0.11160541	      0.98352597	      0.53202955	      0.00000000	      0.00000000	      0.00038930	      0.01859441	      0.02972276	      0.65088237	     -1.42836746	    -26.02630682	     -0.00038930	     -0.01859441	     -0.02972276	     -0.65088237	     -1.42836746	    -26.02630682	     -1.12600263	    -28.18580724	     -1.12600263	    -28.18580724	      3.99474408	     37.37001325	      3.99474408	     37.37001325	      0.02042564	      0.10498612	      0.02042564	      0.09054665	      0.02042564	      0.10968462	      0.02042564	      0.08934085	      0.02042564	      0.06557965	      0.02042564	      0.05320655	      0.02042564	      0.08961717	      0.02042564	      0.10498612	      0.02042564	      0.09054665	      0.02042564	      0.10968462	      0.02042564	      0.08934085	      0.02042564	      0.06557965	      0.02042564	      0.05320655	      0.02042564	      0.08961717
      0.06600064	     -0.00000000	      0.00000000	     -0.00000000	     -0.00000000	      1.40602370	     29.35662145	      0.00560775	      0.11172649	      0.98395341	      0.52968746	      0.00000000	      0.00000000	      0.00040445	      0.01902066	      0.03024756	      0.65274579	     -1.44929033	    -25.94336245	     -0.00040445	     -0.01902066	     -0.03024756	     -0.65274579	     -1.44929033	    -25.94336245	     -1.14882904	    -28.51204327	     -1.14882904	    -28.51204327	      4.02452653	     36.60139323	      4.02452653	     36.60139323	      0.02020868	      0.10496119	      0.02020868	      0.09047953	      0.02020868	      0.10970210	      0.02020868	      0.08924791	      0.02020868	      0.06558620	      0.02020868	      0.05312602	      0.02020868	      0.08952568	      0.02020868	      0.10496119	      0.02020868	      0.09047953	      0.02020868	      0.10970210	      0.02020868	      0.08924791	      0.02020868	      0.06558620	      0.02020868	      0.05312602	      0.02020868	      0.08952568
      0.06680582	     -0.00000000	      0.00000000	     -0.00000000	     -0.00000000	      1.42970111	     29.45522408	      0.00569776	      0.11183789	      0.98437895	      0.52728226	      0.00000000	      0.00000000	      0.00041994	      0.01948324	      0.03077405	      0.65505533	     -1.47014514	    -25.85727963	     -0.00041994	     -0.01948324	     -0.03077405	     -0.65505533	     -1.47014514	    -25.85727963	     -1.17191704	    -28.83550265	     -1.17191704	    -28.83550265	      4.05367473	     35.79397908	      4.05367473	     35.79397908	      0.01999417	      0.10493610	      0.01999417	      0.09041321	      0.01999417	      0.10971950	      0.01999417	      0.08915574	      0.01999417	      0.06559388	      0.01999417	      0.05304680	      0.01999417	      0.08943494	      0.01999417	      0.10493610	      0.01999417	      0.09041321	      0.01999417	      0.10971950	      0.01999417	      0.08915574	      0.01999417	      0.06559388	      0.01999417	      0.05304680	      0.01999417	      0.08943494
      0.06761101	     -0.00000000	     -0.00000000	     -0.00000000	     -0.00000000	      1.45345714	     29.55192581	      0.00578785	      0.11193986	      0.98480252	      0.52481302	      0.00000000	      0.00000000	      0.00043583	      0.01998153	      0.03130256	      0.65779476	     -1.49092942	    -25.76818908	     -0.00043583	     -0.01998153	     -0.03130256	     -0.65779476	     -1.49092942	    -25.76818908	     -1.19526418	    -29.15561914	     -1.19526418	    -29.15561914	      4.08215606	     34.94430709	      4.08215606	     34.94430709	      0.01978206	      0.10491087	      0.01978206	      0.09034769	      0.01978206	      0.10973681	      0.01978206	      0.08906433	      0.01978206	      0.06560256	      0.01978206	      0.05296888	      0.01978206	      0.08934494	      0.01978206	      0.10491087	      0.01978206	      0.09034769	      0.01978206	      0.10973681	      0.01978206	      0.08906433	      0.01978206	      0.06560256	      0.01978206	      0.05296888	      0.01978206	      0.08934494
